<svg id="visual" viewBox="0 0 900 600" width="900" height="600" xmlns="http://www.w3.org/2000/svg" xmlns:xlink="http://www.w3.org/1999/xlink" version="1.1"><rect x="0" y="0" width="900" height="600" fill="#efbdba"></rect><defs><linearGradient id="grad1_0" x1="33.3%" y1="0%" x2="100%" y2="100%"><stop offset="20%" stop-color="#efbdba" stop-opacity="1"></stop><stop offset="80%" stop-color="#efbdba" stop-opacity="1"></stop></linearGradient></defs><defs><linearGradient id="grad2_0" x1="0%" y1="0%" x2="66.7%" y2="100%"><stop offset="20%" stop-color="#efbdba" stop-opacity="1"></stop><stop offset="80%" stop-color="#efbdba" stop-opacity="1"></stop></linearGradient></defs><g transform="translate(900, 0)"><path d="M0 486.7C-44.7 435.1 -89.3 383.5 -152.3 367.7C-215.3 351.9 -296.5 371.9 -344.2 344.2C-391.8 316.5 -405.9 241 -424.1 175.7C-442.2 110.3 -464.5 55.2 -486.7 0L0 0Z" fill="#F7CACA"></path></g><g transform="translate(0, 600)"><path d="M0 -486.7C63.3 -479.6 126.5 -472.5 186.3 -449.7C246 -426.9 302.3 -388.5 339.4 -339.4C376.5 -290.3 394.4 -230.6 415.7 -172.2C437.1 -113.9 461.9 -56.9 486.7 0L0 0Z" fill="#F7CACA"></path></g></svg>